# Blender v2.80 (sub 75) OBJ File: ''
# www.blender.org
o Suzanne
v -0.437500 0.164062 0.765625
v -0.500000 0.093750 0.687500
v -0.546875 0.054688 0.578125
v -0.351562 -0.023438 0.617188
v -0.351562 0.031250 0.718750
v -0.351562 0.132812 0.781250
v -0.273438 0.164062 0.796875
v -0.203125 0.093750 0.742188
v -0.156250 0.054688 0.648438
v -0.078125 0.242188 0.656250
v -0.140625 0.242188 0.742188
v -0.242188 0.242188 0.796875
v -0.273438 0.328125 0.796875
v -0.203125 0.390625 0.742188
v -0.156250 0.437500 0.648438
v -0.351562 0.515625 0.617188
v -0.351562 0.453125 0.718750
v -0.351562 0.359375 0.781250
v -0.437500 0.328125 0.765625
v -0.500000 0.390625 0.687500
v -0.546875 0.437500 0.578125
v -0.625000 0.242188 0.562500
v -0.562500 0.242188 0.671875
v -0.468750 0.242188 0.757812
v -0.476562 0.242188 0.773438
v -0.445312 0.335938 0.781250
v -0.351562 0.375000 0.804688
v -0.265625 0.335938 0.820312
v -0.226562 0.242188 0.820312
v -0.265625 0.156250 0.820312
v -0.351562 0.242188 0.828125
v -0.351562 0.117188 0.804688
v -0.445312 0.156250 0.781250
v 0.000000 0.429688 0.742188
v 0.000000 0.351562 0.820312
v 0.000000 -0.679688 0.734375
v 0.000000 -0.320312 0.781250
v 0.000000 -0.187500 0.796875
v 0.000000 -0.773438 0.718750
v 0.000000 0.406250 0.601562
v 0.000000 0.570312 0.570312
v 0.000000 0.898438 -0.546875
v 0.000000 0.562500 -0.851562
v 0.000000 0.070312 -0.828125
v 0.000000 -0.382812 -0.351562
v -0.203125 -0.187500 0.562500
v -0.312500 -0.437500 0.570312
v -0.351562 -0.695312 0.570312
v -0.367188 -0.890625 0.531250
v -0.328125 -0.945312 0.523438
v -0.179688 -0.968750 0.554688
v 0.000000 -0.984375 0.578125
v -0.437500 -0.140625 0.531250
v -0.632812 -0.039062 0.539062
v -0.828125 0.148438 0.445312
v -0.859375 0.429688 0.593750
v -0.710938 0.484375 0.625000
v -0.492188 0.601562 0.687500
v -0.320312 0.757812 0.734375
v -0.156250 0.718750 0.757812
v -0.062500 0.492188 0.750000
v -0.164062 0.414062 0.773438
v -0.125000 0.304688 0.765625
v -0.203125 0.093750 0.742188
v -0.375000 0.015625 0.703125
v -0.492188 0.062500 0.671875
v -0.625000 0.187500 0.648438
v -0.640625 0.296875 0.648438
v -0.601562 0.375000 0.664062
v -0.429688 0.437500 0.718750
v -0.250000 0.468750 0.757812
v 0.000000 -0.765625 0.734375
v -0.109375 -0.718750 0.734375
v -0.117188 -0.835938 0.710938
v -0.062500 -0.882812 0.695312
v 0.000000 -0.890625 0.687500
v 0.000000 -0.195312 0.750000
v 0.000000 -0.140625 0.742188
v -0.101562 -0.148438 0.742188
v -0.125000 -0.226562 0.750000
v -0.085938 -0.289062 0.742188
v -0.398438 -0.046875 0.671875
v -0.617188 0.054688 0.625000
v -0.726562 0.203125 0.601562
v -0.742188 0.375000 0.656250
v -0.687500 0.414062 0.726562
v -0.437500 0.546875 0.796875
v -0.312500 0.640625 0.835938
v -0.203125 0.617188 0.851562
v -0.101562 0.429688 0.843750
v -0.125000 -0.101562 0.812500
v -0.210938 -0.445312 0.710938
v -0.250000 -0.703125 0.687500
v -0.265625 -0.820312 0.664062
v -0.234375 -0.914062 0.632812
v -0.164062 -0.929688 0.632812
v 0.000000 -0.945312 0.640625
v 0.000000 0.046875 0.726562
v 0.000000 0.210938 0.765625
v -0.328125 0.476562 0.742188
v -0.164062 0.140625 0.750000
v -0.132812 0.210938 0.757812
v -0.117188 -0.687500 0.734375
v -0.078125 -0.445312 0.750000
v 0.000000 -0.445312 0.750000
v 0.000000 -0.328125 0.742188
v -0.093750 -0.273438 0.781250
v -0.132812 -0.226562 0.796875
v -0.109375 -0.132812 0.781250
v 0.039062 -0.125000 0.781250
v -0.039062 -0.125000 0.781250
v 0.000000 -0.203125 0.828125
v -0.046875 -0.148438 0.812500
v -0.093750 -0.156250 0.812500
v -0.109375 -0.226562 0.828125
v -0.078125 -0.250000 0.804688
v 0.000000 -0.289062 0.804688
v -0.257812 -0.312500 0.554688
v -0.164062 -0.242188 0.710938
v -0.179688 -0.312500 0.710938
v -0.234375 -0.250000 0.554688
v 0.000000 -0.875000 0.687500
v -0.046875 -0.867188 0.687500
v -0.093750 -0.820312 0.710938
v -0.093750 -0.742188 0.726562
v 0.000000 -0.781250 0.656250
v -0.093750 -0.750000 0.664062
v -0.093750 -0.812500 0.640625
v -0.046875 -0.851562 0.632812
v 0.000000 -0.859375 0.632812
v -0.171875 0.218750 0.781250
v -0.187500 0.156250 0.773438
v -0.335938 0.429688 0.757812
v -0.273438 0.421875 0.773438
v -0.421875 0.398438 0.773438
v -0.562500 0.351562 0.695312
v -0.585938 0.289062 0.687500
v -0.578125 0.195312 0.679688
v -0.476562 0.101562 0.718750
v -0.375000 0.062500 0.742188
v -0.226562 0.109375 0.781250
v -0.179688 0.296875 0.781250
v -0.210938 0.375000 0.781250
v -0.234375 0.359375 0.757812
v -0.195312 0.296875 0.757812
v -0.242188 0.125000 0.757812
v -0.375000 0.085938 0.726562
v -0.460938 0.117188 0.703125
v -0.546875 0.210938 0.671875
v -0.554688 0.281250 0.671875
v -0.531250 0.335938 0.679688
v -0.414062 0.390625 0.750000
v -0.281250 0.398438 0.765625
v -0.335938 0.406250 0.750000
v -0.203125 0.171875 0.750000
v -0.195312 0.226562 0.750000
v -0.109375 0.460938 0.609375
v -0.195312 0.664062 0.617188
v -0.335938 0.687500 0.593750
v -0.484375 0.554688 0.554688
v -0.679688 0.453125 0.492188
v -0.796875 0.406250 0.460938
v -0.773438 0.164062 0.375000
v -0.601562 0.000000 0.414062
v -0.437500 -0.093750 0.468750
v 0.000000 0.898438 0.289062
v 0.000000 0.984375 -0.078125
v 0.000000 -0.195312 -0.671875
v 0.000000 -0.460938 0.187500
v 0.000000 -0.976562 0.460938
v 0.000000 -0.804688 0.343750
v 0.000000 -0.570312 0.320312
v 0.000000 -0.484375 0.281250
v -0.851562 0.234375 0.054688
v -0.859375 0.320312 -0.046875
v -0.773438 0.265625 -0.437500
v -0.460938 0.437500 -0.703125
v -0.734375 -0.046875 0.070312
v -0.593750 -0.125000 -0.164062
v -0.640625 -0.007812 -0.429688
v -0.335938 0.054688 -0.664062
v -0.234375 -0.351562 0.406250
v -0.179688 -0.414062 0.257812
v -0.289062 -0.710938 0.382812
v -0.250000 -0.500000 0.390625
v -0.328125 -0.914062 0.398438
v -0.140625 -0.757812 0.367188
v -0.125000 -0.539062 0.359375
v -0.164062 -0.945312 0.437500
v -0.218750 -0.281250 0.429688
v -0.210938 -0.226562 0.468750
v -0.203125 -0.171875 0.500000
v -0.210938 -0.390625 0.164062
v -0.296875 -0.312500 -0.265625
v -0.343750 -0.148438 -0.539062
v -0.453125 0.867188 -0.382812
v -0.453125 0.929688 -0.070312
v -0.453125 0.851562 0.234375
v -0.460938 0.523438 0.429688
v -0.726562 0.406250 0.335938
v -0.632812 0.453125 0.281250
v -0.640625 0.703125 0.054688
v -0.796875 0.562500 0.125000
v -0.796875 0.617188 -0.117188
v -0.640625 0.750000 -0.195312
v -0.640625 0.679688 -0.445312
v -0.796875 0.539062 -0.359375
v -0.617188 0.328125 -0.585938
v -0.484375 0.023438 -0.546875
v -0.820312 0.328125 -0.203125
v -0.406250 -0.171875 0.148438
v -0.429688 -0.195312 -0.210938
v -0.890625 0.406250 -0.234375
v -0.773438 -0.140625 -0.125000
v -1.039062 -0.101562 -0.328125
v -1.281250 0.054688 -0.429688
v -1.351562 0.320312 -0.421875
v -1.234375 0.507812 -0.421875
v -1.023438 0.476562 -0.312500
v -1.015625 0.414062 -0.289062
v -1.187500 0.437500 -0.390625
v -1.265625 0.289062 -0.406250
v -1.210938 0.078125 -0.406250
v -1.031250 -0.039062 -0.304688
v -0.828125 -0.070312 -0.132812
v -0.921875 0.359375 -0.218750
v -0.945312 0.304688 -0.289062
v -0.882812 -0.023438 -0.210938
v -1.039062 0.000000 -0.367188
v -1.187500 0.093750 -0.445312
v -1.234375 0.250000 -0.445312
v -1.171875 0.359375 -0.437500
v -1.023438 0.343750 -0.359375
v -0.843750 0.289062 -0.210938
v -0.835938 0.171875 -0.273438
v -0.757812 0.093750 -0.273438
v -0.820312 0.085938 -0.273438
v -0.843750 0.015625 -0.273438
v -0.812500 -0.015625 -0.273438
v -0.726562 0.000000 -0.070312
v -0.718750 -0.023438 -0.171875
v -0.718750 0.039062 -0.187500
v -0.796875 0.203125 -0.210938
v -0.890625 0.242188 -0.265625
v -0.890625 0.234375 -0.320312
v -0.812500 -0.015625 -0.320312
v -0.851562 0.015625 -0.320312
v -0.828125 0.078125 -0.320312
v -0.765625 0.093750 -0.320312
v -0.843750 0.171875 -0.320312
v -1.039062 0.328125 -0.414062
v -1.187500 0.343750 -0.484375
v -1.257812 0.242188 -0.492188
v -1.210938 0.085938 -0.484375
v -1.046875 0.000000 -0.421875
v -0.882812 -0.015625 -0.265625
v -0.953125 0.289062 -0.343750
v -0.890625 0.109375 -0.328125
v -0.937500 0.062500 -0.335938
v -1.000000 0.125000 -0.367188
v -0.960938 0.171875 -0.351562
v -1.015625 0.234375 -0.375000
v -1.054688 0.187500 -0.382812
v -1.109375 0.210938 -0.390625
v -1.085938 0.273438 -0.390625
v -1.023438 0.437500 -0.484375
v -1.250000 0.468750 -0.546875
v -1.367188 0.296875 -0.500000
v -1.312500 0.054688 -0.531250
v -1.039062 -0.085938 -0.492188
v -0.789062 -0.125000 -0.328125
v -0.859375 0.382812 -0.382812
vn -0.6650 -0.2008 0.7194
vn -0.8294 -0.3036 0.4689
vn -0.4155 -0.7933 0.4449
vn -0.3600 -0.5089 0.7820
vn 0.0787 -0.5394 0.8384
vn 0.2696 -0.8413 0.4685
vn 0.7707 -0.3352 0.5420
vn 0.4689 -0.1940 0.8617
vn 0.4767 0.1907 0.8581
vn 0.7672 0.3264 0.5521
vn 0.2519 0.8173 0.5182
vn 0.0949 0.5696 0.8164
vn -0.3667 0.5370 0.7597
vn -0.4141 0.7672 0.4898
vn -0.8277 0.2952 0.4771
vn -0.6713 0.1971 0.7145
vn -0.8111 0.3244 -0.4867
vn -0.2052 0.8206 -0.5334
vn 0.4223 0.7806 -0.4607
vn 0.8241 0.3225 -0.4658
vn 0.8137 -0.3487 -0.4650
vn 0.4223 -0.7806 -0.4607
vn -0.2052 -0.8206 -0.5334
vn -0.7995 -0.3510 -0.4875
vn -0.4000 -0.0623 0.9144
vn -0.3069 -0.1754 0.9354
vn -0.0945 -0.1835 0.9785
vn 0.0624 -0.0283 0.9977
vn 0.0624 0.0260 0.9977
vn -0.0996 0.1729 0.9799
vn -0.3036 0.1656 0.9383
vn -0.4002 0.0572 0.9147
vn -0.1231 -0.8616 0.4924
vn -0.2190 -0.8647 0.4520
vn -0.5902 -0.4550 0.6668
vn -0.7689 -0.0506 0.6374
vn -0.7796 0.0900 0.6197
vn -0.3241 -0.8188 0.4739
vn -0.3857 -0.6629 0.6417
vn -0.6895 -0.4193 0.5906
vn -0.6588 -0.3634 0.6588
vn -0.5465 0.3707 0.7509
vn -0.5064 0.6464 0.5706
vn -0.6092 0.5167 0.6015
vn 0.0441 0.6610 0.7491
vn 0.7246 0.3187 0.6110
vn 0.5880 0.5554 0.5880
vn -0.5361 -0.3909 0.7482
vn -0.2207 -0.4690 0.8552
vn 0.0794 -0.5321 0.8429
vn 0.0825 -0.6575 0.7490
vn -0.0457 -0.5667 0.8226
vn -0.2784 -0.2130 0.9365
vn -0.3813 -0.1824 0.9063
vn -0.3357 -0.2878 0.8969
vn -0.3762 0.0603 0.9246
vn 0.1352 0.2680 0.9539
vn -0.3961 -0.4321 0.8102
vn -0.1856 -0.2474 0.9510
vn -0.0099 -0.1948 0.9808
vn -0.0721 -0.6966 0.7138
vn -0.1863 -0.5723 0.7986
vn -0.3157 -0.2708 0.9094
vn -0.3063 -0.0265 0.9516
vn -0.3266 -0.1306 0.9361
vn 0.0137 0.0574 0.9983
vn 0.0026 -0.0656 0.9978
vn 0.0000 0.0000 1.0000
vn -0.8174 -0.5744 -0.0442
vn -0.9494 0.2297 -0.2144
vn -0.0825 0.9073 -0.4124
vn -0.8836 0.3555 0.3047
vn 0.8836 0.3555 0.3047
vn -0.4207 -0.8797 0.2218
vn -0.2873 -0.5747 0.7663
vn 0.6542 0.6019 0.4580
vn -0.1052 0.7892 0.6051
vn -0.7582 0.2916 0.5832
vn -0.3889 -0.7130 0.5834
vn -0.0463 0.2314 0.9718
vn -0.0335 -0.4018 0.9151
vn 0.4452 -0.1610 0.8809
vn 0.2182 -0.4364 0.8729
vn -0.4341 -0.1290 0.8916
vn -0.3008 0.0501 0.9524
vn -0.8123 0.3010 0.4996
vn -0.8753 0.2574 0.4093
vn -0.9385 0.1601 0.3060
vn -0.2237 -0.6539 0.7227
vn 0.1536 -0.1997 0.9677
vn 0.2733 -0.1025 0.9565
vn 0.0976 0.1952 0.9759
vn 0.1582 0.9494 0.2713
vn 0.6934 0.7082 0.1328
vn 1.0000 0.0000 0.0000
vn -0.3051 -0.9450 0.1181
vn -0.0298 -0.2981 0.9541
vn -0.1353 -0.3479 0.9277
vn 0.5085 -0.2755 0.8158
vn 0.3843 -0.0419 0.9223
vn 0.2083 0.0374 0.9774
vn 0.5721 -0.4767 0.6674
vn 0.1369 -0.7531 0.6435
vn -0.4088 -0.6071 0.6814
vn -0.5740 -0.4130 0.7070
vn -0.5665 -0.0968 0.8183
vn -0.5703 0.1180 0.8129
vn -0.4823 0.5621 0.6719
vn -0.2604 0.6114 0.7473
vn -0.1640 0.3607 0.9182
vn 0.0178 0.2495 0.9682
vn -0.3273 -0.4166 0.8481
vn -0.2811 -0.2610 0.9235
vn 0.2542 -0.6514 0.7149
vn 0.0260 -0.8455 0.5333
vn 0.3518 -0.2606 0.8991
vn 0.3523 -0.0110 0.9358
vn 0.1317 0.4608 0.8777
vn 0.0342 0.6159 0.7870
vn -0.3603 0.5836 0.7277
vn -0.4988 0.5300 0.6858
vn -0.6667 -0.3333 0.6667
vn -0.8165 -0.0731 0.5727
vn -0.7840 0.1161 0.6098
vn 0.5306 0.8111 -0.2461
vn 0.8511 0.3695 -0.3730
vn 0.2446 0.8675 -0.4331
vn -0.5924 0.7465 -0.3030
vn -0.3685 0.8758 -0.3118
vn -0.2821 0.9151 -0.2880
vn -0.8561 0.1340 -0.4991
vn -0.5342 -0.7233 -0.4376
vn -0.3849 -0.8131 -0.4368
vn -0.2335 -0.5806 -0.7800
vn -0.2449 -0.0583 -0.9678
vn -0.1163 -0.4535 -0.8837
vn -0.1152 -0.9836 -0.1388
vn -0.1184 -0.9669 -0.2260
vn -0.9597 -0.0085 -0.2808
vn -0.9319 0.1629 -0.3242
vn -0.1626 0.0207 -0.9865
vn 0.0188 -0.2177 -0.9758
vn -0.7538 -0.2926 -0.5884
vn -0.9196 0.1379 -0.3678
vn -0.9297 0.3127 -0.1944
vn -0.9120 0.3376 -0.2329
vn -0.9407 0.3338 -0.0607
vn -0.1761 -0.8805 -0.4402
vn -0.3708 -0.4733 -0.7991
vn -0.3107 -0.8284 -0.4660
vn -0.2793 -0.9515 -0.1287
vn -0.3139 -0.9321 -0.1807
vn -0.9762 -0.2083 -0.0609
vn -0.8267 -0.5066 0.2447
vn -0.3449 -0.1158 -0.9315
vn -0.1203 0.9644 0.2355
vn -0.1275 0.9744 -0.1851
vn -0.3492 0.5947 -0.7241
vn -0.4153 0.8981 -0.1449
vn -0.1845 0.7036 0.6863
vn -0.6056 0.7794 0.1608
vn -0.7033 0.6806 -0.2053
vn -0.6679 0.2007 -0.7166
vn -0.4948 0.4342 -0.7528
vn -0.6423 0.7459 -0.1761
vn -0.7182 0.6788 0.1530
vn -0.7388 0.3972 0.5444
vn -0.3428 0.9261 -0.1579
vn -0.2270 0.5740 0.7867
vn 0.1722 0.1046 -0.9795
vn -0.0425 0.9150 0.4013
vn 0.1616 0.1847 0.9694
vn -0.9791 0.1973 0.0483
vn -0.9470 0.0918 0.3079
vn -0.9794 0.1905 -0.0661
vn -0.9938 0.0312 -0.1070
vn -0.7116 -0.7008 0.0501
vn -0.3722 -0.9243 0.0847
vn -0.4465 -0.8644 0.2310
vn -0.6066 -0.7578 0.2405
vn -0.7325 -0.6368 0.2407
vn -0.2637 -0.4499 0.8533
vn -0.5568 -0.3181 -0.7673
vn -0.5004 -0.2807 -0.8190
vn -0.3190 -0.8494 -0.4205
vn -0.7198 -0.6356 -0.2793
vn -0.4972 -0.4408 -0.7473
vn -0.3506 0.3807 0.8557
vn -0.4566 0.1715 0.8730
vn -0.2583 0.1055 0.9603
vn -0.2455 -0.0802 0.9661
vn -0.4643 -0.0599 0.8837
vn -0.6225 -0.3045 0.7210
vn -0.4500 0.6590 0.6027
vn 0.2667 0.8309 0.4884
vn 0.8284 0.2291 0.5111
vn 0.5251 -0.3566 0.7727
vn -0.4546 -0.5665 0.6873
vn -0.6996 -0.4497 0.5552
vn -0.7220 -0.6827 -0.1126
vn 0.1919 0.2860 0.9388
vn -0.9048 -0.3734 -0.2047
vn -0.1034 0.1551 0.9825
vn -0.0841 0.9318 0.3530
vn -0.6446 -0.0883 0.7594
vn -0.4309 0.4740 0.7678
vn -0.8032 -0.4847 0.3462
vn -0.5811 -0.4128 0.7014
vn -0.5910 -0.4305 0.6822
vn -0.9818 -0.1804 -0.0591
vn -0.9105 -0.3965 -0.1175
vn -0.9972 -0.0181 -0.0725
vn -0.7313 -0.6543 0.1925
vn -0.7867 -0.6079 0.1073
vn -0.7022 -0.7022 0.1170
vn -0.1840 0.9816 -0.0511
vn -0.9352 0.3301 0.1284
vn -0.6633 -0.7463 0.0553
vn 0.0085 0.9970 0.0767
vn -0.6237 -0.7061 0.3354
vn -0.2733 -0.8925 0.3587
vn 0.8328 -0.5080 -0.2200
vn 0.8339 0.2377 -0.4981
vn 0.5655 0.7847 -0.2539
vn 0.0560 0.9962 0.0672
vn -0.1445 0.0222 0.9893
vn -0.3275 0.0645 0.9427
vn -0.3127 0.0232 0.9496
vn -0.1710 0.0274 0.9849
vn -0.3487 0.2849 0.8929
vn -0.4006 -0.0343 0.9156
vn -0.2572 -0.0603 0.9645
vn -0.0637 -0.0106 0.9979
vn 0.3637 0.7039 0.6101
vn -0.6299 0.0355 0.7759
vn -0.4472 -0.2002 0.8717
vn -0.5072 -0.2141 0.8348
vn -0.5258 0.2619 0.8093
vn -0.2980 0.5802 0.7580
vn -0.0930 -0.9924 -0.0805
vn -0.5006 -0.8657 0.0080
vn -0.9285 -0.2497 0.2748
vn -0.8393 0.5424 -0.0378
vn 0.2355 0.9367 -0.2589
vn 0.4499 0.8838 -0.1285
vn 0.5384 -0.0098 -0.8427
vn 0.1910 -0.0241 -0.9813
vn -0.4046 0.0266 -0.9141
vn 0.7819 0.6231 0.0197
vn -0.5428 -0.2063 -0.8142
vn 0.2474 -0.9231 -0.2945
s off
f 2//1 1//1 24//1 23//1
f 3//2 2//2 23//2 22//2
f 4//3 5//3 2//3 3//3
f 5//4 6//4 1//4 2//4
f 8//5 7//5 6//5 5//5
f 9//6 8//6 5//6 4//6
f 10//7 11//7 8//7 9//7
f 11//8 12//8 7//8 8//8
f 14//9 13//9 12//9 11//9
f 15//10 14//10 11//10 10//10
f 16//11 17//11 14//11 15//11
f 17//12 18//12 13//12 14//12
f 20//13 19//13 18//13 17//13
f 21//14 20//14 17//14 16//14
f 22//15 23//15 20//15 21//15
f 23//16 24//16 19//16 20//16
f 26//17 19//17 24//17 25//17
f 27//18 18//18 19//18 26//18
f 28//19 13//19 18//19 27//19
f 29//20 12//20 13//20 28//20
f 30//21 7//21 12//21 29//21
f 32//22 6//22 7//22 30//22
f 33//23 1//23 6//23 32//23
f 25//24 24//24 1//24 33//24
f 25//25 33//25 31//25
f 31//26 33//26 32//26
f 32//27 30//27 31//27
f 30//28 29//28 31//28
f 29//29 28//29 31//29
f 28//30 27//30 31//30
f 27//31 26//31 31//31
f 26//32 25//32 31//32
f 97//33 96//33 51//33 52//33
f 96//34 95//34 50//34 51//34
f 95//35 94//35 49//35 50//35
f 94//36 93//36 48//36 49//36
f 93//37 92//37 47//37 48//37
f 82//38 53//38 46//38 91//38
f 83//39 54//39 53//39 82//39
f 84//40 55//40 54//40 83//40
f 85//41 56//41 55//41 84//41
f 86//42 57//42 56//42 85//42
f 87//43 58//43 57//43 86//43
f 88//44 59//44 58//44 87//44
f 89//45 60//45 59//45 88//45
f 90//46 61//46 60//46 89//46
f 35//47 34//47 61//47 90//47
f 89//48 71//48 62//48 90//48
f 88//49 100//49 71//49 89//49
f 88//50 87//50 70//50 100//50
f 87//51 86//51 69//51 70//51
f 86//52 85//52 68//52 69//52
f 85//53 84//53 67//53 68//53
f 84//54 83//54 66//54 67//54
f 83//55 82//55 65//55 66//55
f 82//56 91//56 64//56 65//56
f 98//57 101//57 64//57 91//57
f 35//58 90//58 62//58 63//58
f 99//59 35//59 63//59 102//59
f 102//60 101//60 98//60 99//60
f 97//61 76//61 75//61 96//61
f 96//62 75//62 74//62 95//62
f 95//63 74//63 73//63 94//63
f 103//64 104//64 92//64 93//64
f 93//65 94//65 73//65 103//65
f 105//66 106//66 81//66 104//66
f 105//67 104//67 103//67 36//67
f 103//68 73//68 72//68 36//68
f 107//69 108//69 80//69 81//69
f 108//70 109//70 79//70 80//70
f 109//71 111//71 78//71 79//71
f 77//72 38//72 110//72 78//72
f 111//73 38//73 77//73 78//73
f 107//74 81//74 106//74 37//74
f 116//75 107//75 37//75 117//75
f 113//76 112//76 38//76 111//76
f 114//77 113//77 111//77 109//77
f 115//78 114//78 109//78 108//78
f 116//79 115//79 108//79 107//79
f 114//80 115//80 112//80 113//80
f 116//81 117//81 112//81 115//81
f 91//82 79//82 78//82 98//82
f 119//83 80//83 79//83 91//83
f 120//84 81//84 80//84 119//84
f 92//85 104//85 81//85 120//85
f 120//86 118//86 47//86 92//86
f 119//87 121//87 118//87 120//87
f 119//88 91//88 46//88 121//88
f 39//89 72//89 73//89 125//89
f 125//90 73//90 74//90 124//90
f 124//91 74//91 75//91 123//91
f 123//92 75//92 76//92 122//92
f 129//93 123//93 122//93 130//93
f 128//94 124//94 123//94 129//94
f 127//95 125//95 124//95 128//95
f 126//96 39//96 125//96 127//96
f 129//97 130//97 126//97 127//97
f 128//98 129//98 127//98
f 132//99 101//99 102//99 131//99
f 131//100 102//100 63//100 142//100
f 142//101 63//101 62//101 143//101
f 141//102 64//102 101//102 132//102
f 140//103 65//103 64//103 141//103
f 139//104 66//104 65//104 140//104
f 138//105 67//105 66//105 139//105
f 137//106 68//106 67//106 138//106
f 136//107 69//107 68//107 137//107
f 135//108 70//108 69//108 136//108
f 133//109 100//109 70//109 135//109
f 134//110 71//110 100//110 133//110
f 143//111 62//111 71//111 134//111
f 144//112 143//112 134//112 153//112
f 153//113 134//113 133//113 154//113
f 154//114 133//114 135//114 152//114
f 152//115 135//115 136//115 151//115
f 151//116 136//116 137//116 150//116
f 150//117 137//117 138//117 149//117
f 149//118 138//118 139//118 148//118
f 148//119 139//119 140//119 147//119
f 147//120 140//120 141//120 146//120
f 146//121 141//121 132//121 155//121
f 145//122 142//122 143//122 144//122
f 156//123 131//123 142//123 145//123
f 155//124 132//124 131//124 156//124
f 157//125 61//125 34//125 40//125
f 158//126 60//126 61//126 157//126
f 159//127 59//127 60//127 158//127
f 160//128 58//128 59//128 159//128
f 161//129 57//129 58//129 160//129
f 162//130 56//130 57//130 161//130
f 163//131 55//131 56//131 162//131
f 164//132 54//132 55//132 163//132
f 165//133 53//133 54//133 164//133
f 183//134 173//134 172//134 188//134
f 188//135 172//135 171//135 187//135
f 187//136 171//136 170//136 189//136
f 170//137 52//137 51//137 189//137
f 189//138 51//138 50//138 186//138
f 186//139 50//139 49//139 184//139
f 184//140 49//140 48//140 185//140
f 188//141 187//141 184//141 185//141
f 189//142 186//142 184//142 187//142
f 188//143 185//143 182//143 183//143
f 185//144 48//144 47//144 182//144
f 191//145 190//145 118//145 121//145
f 190//146 182//146 47//146 118//146
f 191//147 121//147 46//147 192//147
f 165//148 192//148 46//148 53//148
f 195//149 181//149 44//149 168//149
f 194//150 195//150 168//150 45//150
f 193//151 194//151 45//151 169//151
f 183//152 193//152 169//152 173//152
f 193//153 183//153 182//153 190//153
f 178//154 164//154 163//154 174//154
f 181//155 177//155 43//155 44//155
f 197//156 198//156 166//156 167//156
f 196//157 197//157 167//157 42//157
f 177//158 196//158 42//158 43//158
f 200//159 162//159 161//159 201//159
f 203//160 200//160 201//160 202//160
f 204//161 203//161 202//161 205//161
f 207//162 204//162 205//162 206//162
f 206//163 208//163 176//163 207//163
f 206//164 196//164 177//164 208//164
f 205//165 197//165 196//165 206//165
f 202//166 198//166 197//166 205//166
f 201//167 199//167 198//167 202//167
f 201//168 161//168 160//168 199//168
f 198//169 199//169 41//169 166//169
f 159//170 158//170 157//170 160//170
f 199//171 160//171 157//171 41//171
f 41//172 157//172 40//172
f 174//173 163//173 162//173 200//173
f 203//174 175//174 174//174 200//174
f 204//175 210//175 175//175 203//175
f 204//176 207//176 176//176 210//176
f 212//177 194//177 193//177 211//177
f 212//178 211//178 178//178 179//178
f 211//179 165//179 164//179 178//179
f 190//180 191//180 165//180 211//180
f 211//181 193//181 190//181
f 191//182 192//182 165//182
f 209//183 180//183 176//183 208//183
f 209//184 208//184 177//184 181//184
f 209//185 212//185 179//185 180//185
f 209//186 195//186 194//186 212//186
f 195//187 209//187 181//187
f 226//188 213//188 219//188 220//188
f 221//189 220//189 219//189 218//189
f 222//190 221//190 218//190 217//190
f 223//191 222//191 217//191 216//191
f 224//192 223//192 216//192 215//192
f 225//193 224//193 215//193 214//193
f 228//194 229//194 224//194 225//194
f 229//195 230//195 223//195 224//195
f 230//196 231//196 222//196 223//196
f 231//197 232//197 221//197 222//197
f 232//198 233//198 220//198 221//198
f 227//199 226//199 220//199 233//199
f 241//200 179//200 178//200 240//200
f 225//201 214//201 179//201 241//201
f 240//202 178//202 174//202 175//202
f 226//203 234//203 210//203 213//203
f 239//204 228//204 225//204 241//204
f 241//205 242//205 238//205 239//205
f 238//206 242//206 236//206 237//206
f 242//207 243//207 235//207 236//207
f 235//208 243//208 234//208 244//208
f 244//209 234//209 226//209 227//209
f 234//210 243//210 175//210 210//210
f 242//211 240//211 175//211 243//211
f 242//212 241//212 240//212
f 245//213 244//213 227//213 257//213
f 250//214 235//214 244//214 245//214
f 249//215 236//215 235//215 250//215
f 248//216 237//216 236//216 249//216
f 247//217 238//217 237//217 248//217
f 246//218 239//218 238//218 247//218
f 256//219 228//219 239//219 246//219
f 257//220 227//220 233//220 251//220
f 251//221 233//221 232//221 252//221
f 252//222 232//222 231//222 253//222
f 253//223 231//223 230//223 254//223
f 254//224 230//224 229//224 255//224
f 255//225 229//225 228//225 256//225
f 259//226 247//226 248//226 258//226
f 260//227 259//227 258//227 261//227
f 263//228 260//228 261//228 262//228
f 264//229 263//229 262//229 265//229
f 262//230 257//230 251//230 265//230
f 262//231 261//231 245//231 257//231
f 258//232 250//232 245//232 261//232
f 250//233 258//233 248//233 249//233
f 259//234 256//234 246//234 247//234
f 259//235 260//235 255//235 256//235
f 260//236 263//236 254//236 255//236
f 263//237 264//237 253//237 254//237
f 264//238 265//238 252//238 253//238
f 252//239 265//239 251//239
f 271//240 214//240 215//240 270//240
f 270//241 215//241 216//241 269//241
f 269//242 216//242 217//242 268//242
f 268//243 217//243 218//243 267//243
f 267//244 218//244 219//244 266//244
f 266//245 219//245 213//245 272//245
f 271//246 270//246 266//246 272//246
f 269//247 267//247 266//247 270//247
f 269//248 268//248 267//248
f 213//249 210//249 176//249 272//249
f 271//250 272//250 176//250 180//250
f 271//251 180//251 179//251 214//251
